# xmcd CD database file
#
# Track frame offsets:
#	150
#	12917
#	28093
#	43129
#	57912
#	72720
#	86324
#	99028
#	114141
#	128062
#	139476
#	153823
#	165750
#	178099
#	190219
#	204126
#	218578
#	233500
#	246343
#	260592
#
# Disc length: 3632 seconds
#
# Revision: 7
# Processed by: cddbd v1.5.2PL0 Copyright (c) Steve Scherf et al.
# Submitted via: CDex 1.51
#
DISCID=030e2e14
DTITLE=Glenn Miller - Vol.01 - In The Mood
DYEAR=1900
DGENRE=Jazz
TTITLE0=Little Brown Jug
TTITLE1=Moonlight Serenade
TTITLE2=Faithful Forever
TTITLE3=Speaking Of Heaven
TTITLE4=Indian Summer
TTITLE5=It Was Written In The Stars
TTITLE6=Johnson Rag
TTITLE7=Ciribiribin
TTITLE8=Careless
TTITLE9=Oh Johnny, Oh Jonny, Oh
TTITLE10=In An Old Dutch Garden
TTITLE11=This Changing World
TTITLE12=On A Little Street In Singapore
TTITLE13=Vagabond Dreams
TTITLE14=I Beg Your Pardon
TTITLE15=Faithful To  You
TTITLE16=I's A Blue World
TTITLE17=Ooh! What You Said
TTITLE18=The Gaucho Serenade
TTITLE19=The Sky Fell Down
EXTD=
EXTT0=
EXTT1=
EXTT2=
EXTT3=
EXTT4=
EXTT5=
EXTT6=
EXTT7=
EXTT8=
EXTT9=
EXTT10=
EXTT11=
EXTT12=
EXTT13=
EXTT14=
EXTT15=
EXTT16=
EXTT17=
EXTT18=
EXTT19=
PLAYORDER=
